<?xml version="1.0" standalone="no"?>
<!DOCTYPE svg PUBLIC "-//W3C//DTD SVG 20010904//EN"
 "http://www.w3.org/TR/2001/REC-SVG-20010904/DTD/svg10.dtd">
<svg version="1.0" xmlns="http://www.w3.org/2000/svg"
 width="512.000000pt" height="512.000000pt" viewBox="0 0 512.000000 512.000000"
 preserveAspectRatio="xMidYMid meet">
<metadata>
Created by potrace 1.14, written by Peter Selinger 2001-2017
</metadata>
<g transform="translate(0.000000,512.000000) scale(0.100000,-0.100000)"
fill="#000000" stroke="none">
<path d="M434 5105 c-217 -39 -366 -194 -415 -430 -18 -86 -19 -180 -19 -2125
1 -1673 3 -2049 14 -2111 40 -222 192 -371 431 -420 86 -18 180 -19 2125 -19
1673 1 2049 3 2111 14 222 40 371 192 420 431 18 86 19 177 19 1971 0 2090 6
1926 -69 2042 -39 60 -457 488 -552 564 -25 21 -72 50 -105 65 l-59 28 -1915
2 c-1530 1 -1929 -1 -1986 -12z m3790 -304 c46 -43 47 -76 44 -846 -3 -794 0
-757 -67 -802 l-34 -23 -1316 0 c-1233 0 -1318 1 -1350 18 -19 9 -44 30 -55
45 -21 28 -21 38 -24 770 -3 824 -4 804 61 846 32 21 36 21 1374 18 l1341 -2
26 -24z m-119 -1995 c58 -27 94 -63 126 -126 19 -37 25 -68 30 -170 12 -218
10 -1916 -2 -1986 -15 -86 -61 -160 -123 -199 l-49 -30 -1576 -3 c-1226 -2
-1586 0 -1621 10 -58 16 -130 86 -156 153 -18 48 -19 91 -22 962 -1 502 1 984
6 1071 8 147 11 162 38 211 31 59 74 96 131 117 31 11 322 13 1603 13 l1565 1
50 -24z"/>
<path d="M3130 3980 l0 -710 355 0 355 0 0 710 0 710 -355 0 -355 0 0 -710z"/>
</g>
</svg>
